<svg width="23" height="18" viewBox="0 0 23 18" fill="none" xmlns="http://www.w3.org/2000/svg">
    <path
            d="M14.3911 13.9685H12.4964V7.77307C12.4964 7.66056 12.4043 7.56851 12.2918 7.56851H10.7577C10.6452 7.56851 10.5531 7.66056 10.5531 7.77307V13.9685H8.66356C8.49224 13.9685 8.39764 14.1654 8.50247 14.2983L11.3662 17.9215C11.3854 17.946 11.4098 17.9657 11.4377 17.9793C11.4656 17.9929 11.4963 18 11.5273 18C11.5584 18 11.589 17.9929 11.6169 17.9793C11.6448 17.9657 11.6693 17.946 11.6884 17.9215L14.5522 14.2983C14.657 14.1654 14.5624 13.9685 14.3911 13.9685Z"
            fill="#3FAAEE"/>
    <path
            d="M19.1828 5.28517C18.0117 2.1964 15.0277 0 11.5324 0C8.0371 0 5.05316 2.19385 3.88209 5.28262C1.6908 5.85792 0.0722656 7.85489 0.0722656 10.2277C0.0722656 13.0531 2.36072 15.3416 5.18357 15.3416H6.2089C6.3214 15.3416 6.41345 15.2495 6.41345 15.137V13.6029C6.41345 13.4904 6.3214 13.3983 6.2089 13.3983H5.18357C4.32188 13.3983 3.51133 13.0557 2.9079 12.4343C2.30702 11.8156 1.98741 10.982 2.01553 10.1178C2.03854 9.44274 2.26867 8.80862 2.68545 8.27422C3.11245 7.7296 3.71078 7.33327 4.37558 7.15684L5.34465 6.90371L5.70007 5.96787C5.91996 5.38489 6.22679 4.84027 6.61289 4.34678C6.99406 3.85766 7.44557 3.42769 7.95272 3.07087C9.00362 2.33192 10.2412 1.94071 11.5324 1.94071C12.8237 1.94071 14.0612 2.33192 15.1121 3.07087C15.621 3.42884 16.071 3.85841 16.452 4.34678C16.838 4.84027 17.1449 5.38745 17.3648 5.96787L17.7176 6.90115L18.6842 7.15684C20.07 7.53016 21.0391 8.79072 21.0391 10.2277C21.0391 11.0741 20.7092 11.8718 20.1109 12.4701C19.8175 12.7653 19.4684 12.9993 19.084 13.1586C18.6995 13.3179 18.2872 13.3994 17.871 13.3983H16.8457C16.7332 13.3983 16.6412 13.4904 16.6412 13.6029V15.137C16.6412 15.2495 16.7332 15.3416 16.8457 15.3416H17.871C20.6939 15.3416 22.9823 13.0531 22.9823 10.2277C22.9823 7.85744 21.3689 5.86304 19.1828 5.28517Z"
            fill="#3FAAEE"/>
</svg>
